# xmcd
#
# Track frame offsets:
# 150
# 11322
# 25525
# 37407
# 48967
# 59652
# 71050
# 80870
# 92997
# 105517
# 116645
# 124447
#
# Disc length: 1796 seconds
#
# Revision: 2
# Processed by: cddbd v1.5PL3 Copyright (c) Steve Scherf et al.
# Submitted via: Axialis_AX_CDPlayer 2.6
#
DISCID=a907020c
DTITLE=Various Artist - Coutry's Most Requested Songs
DYEAR=1900
DGENRE=
TTITLE0=Hello Darlin'
TTITLE1=You've Never Been This Far Before
TTITLE2=Lying Here With Linda On My Mind
TTITLE3=Walkin After Midnight
TTITLE4=Honky Tonk Merry Go Round
TTITLE5=Just Out of Reach
TTITLE6=Mama Tried
TTITLE7=Okie From Muskogee
TTITLE8=If We Make It Through December
TTITLE9=King of the Road
TTITLE10=Dang Me
TTITLE11=Engine Engine #9
EXTD=
EXTT0=CONWAY TWITTY\n
EXTT1=CONWAY TWITTY\n
EXTT2=CONWAY TWITTY\n
EXTT3=PATSY CLINE\n
EXTT4=PATSY CLINE\n
EXTT5=PATSY CLINE\n
EXTT6=MERLE HAGGARD\n
EXTT7=MERLE HAGGARD\n
EXTT8=MERLE HAGGARD\n
EXTT9=ROGER MILLER\n
EXTT10=ROGER MILLER\n
EXTT11=ROGER MILLER\n
PLAYORDER=
